<?xml version="1.0" encoding="utf-8"?>
<!-- Generator: Adobe Illustrator 26.2.1, SVG Export Plug-In . SVG Version: 6.00 Build 0)  -->
<svg version="1.1" id="Layer_1" xmlns="http://www.w3.org/2000/svg" xmlns:xlink="http://www.w3.org/1999/xlink" x="0px" y="0px"
	 viewBox="0 0 61.8 50.2" style="enable-background:new 0 0 61.8 50.2;" xml:space="preserve">
<style type="text/css">
	.st0{fill-rule:evenodd;clip-rule:evenodd;fill:#FFFFFF;}
</style>
<path class="st0" d="M53.7,16.4c-0.6-3.4-2.9-6.1-6-7.5c-0.6-0.3-2.1-0.7-2.1-0.7s1.5-0.4,2.1-0.7c3.1-1.4,5.4-4.1,6-7.5
	c1.1,3.4,2.9,6.1,6,7.5c0.8,0.3,2.1,0.7,2.1,0.7s-1.3,0.4-2.1,0.7C56.6,10.2,54.8,13,53.7,16.4z M51.1,25.1c0,0-3,1.1-4.2,1.9
	c-6.2,3.8-10.7,11.5-12,20.9c-1.3-9.3-5.8-17.1-12-20.9c-1.2-0.7-4.2-1.9-4.2-1.9s3-1.1,4.2-1.9c6.2-3.8,10.7-10.8,12-20.9
	c1.3,10,5.8,17.1,12,20.9C48.1,24,51.1,25.1,51.1,25.1z M8.1,26.4c-0.6-3.4-2.9-6.1-6-7.5C1.5,18.8,0,18.3,0,18.3s1.5-0.4,2.1-0.7
	c3.1-1.4,5.4-4.1,6-7.5c0.6,3.4,2.9,6.1,6,7.5c0.6,0.3,2.1,0.7,2.1,0.7s-1.5,0.5-2.1,0.7C11,20.3,8.8,23.1,8.1,26.4z M53.7,33.9
	c1.1,3.4,2.9,6.1,6,7.5c0.8,0.4,2.1,0.7,2.1,0.7s-1.3,0.4-2.1,1.5c-3.1,0.5-4.9,3.3-6,6.7c-0.6-3.4-2.9-6.1-6-6.7
	c-0.6-1.1-2.1-1.5-2.1-1.5s1.5-0.3,2.1-0.7C50.7,40,53,37.3,53.7,33.9z"/>
</svg>
